<svg width="36" height="36" viewBox="0 0 36 36" fill="none" xmlns="http://www.w3.org/2000/svg">
<path d="M2 10.5333C2 7.54639 2 6.05291 2.5813 4.91205C3.09262 3.90852 3.90852 3.09262 4.91205 2.5813C6.05291 2 7.54639 2 10.5333 2H25.4667C28.4536 2 29.9471 2 31.0879 2.5813C32.0915 3.09262 32.9074 3.90852 33.4187 4.91205C34 6.05291 34 7.54639 34 10.5333V25.4667C34 28.4536 34 29.9471 33.4187 31.0879C32.9074 32.0915 32.0915 32.9074 31.0879 33.4187C29.9471 34 28.4536 34 25.4667 34H10.5333C7.54639 34 6.05291 34 4.91205 33.4187C3.90852 32.9074 3.09262 32.0915 2.5813 31.0879C2 29.9471 2 28.4536 2 25.4667V10.5333Z" fill="white"/>
<path d="M10.8889 23.3333V26.8889V23.3333Z" fill="white"/>
<path d="M18 16.2222V26.8889V16.2222Z" fill="white"/>
<path d="M25.1111 9.11111V26.8889V9.11111Z" fill="white"/>
<path d="M10.8889 23.3333V26.8889M18 16.2222V26.8889M25.1111 9.11111V26.8889M10.5333 34H25.4667C28.4536 34 29.9471 34 31.0879 33.4187C32.0915 32.9074 32.9074 32.0915 33.4187 31.0879C34 29.9471 34 28.4536 34 25.4667V10.5333C34 7.54639 34 6.05291 33.4187 4.91205C32.9074 3.90852 32.0915 3.09262 31.0879 2.5813C29.9471 2 28.4536 2 25.4667 2H10.5333C7.54639 2 6.05291 2 4.91205 2.5813C3.90852 3.09262 3.09262 3.90852 2.5813 4.91205C2 6.05291 2 7.54639 2 10.5333V25.4667C2 28.4536 2 29.9471 2.5813 31.0879C3.09262 32.0915 3.90852 32.9074 4.91205 33.4187C6.05291 34 7.54639 34 10.5333 34Z" stroke="#1FA0BD" stroke-width="2.5" stroke-linecap="round" stroke-linejoin="round"/>
</svg>
