<svg width="35" height="36" viewBox="0 0 35 36" fill="none" xmlns="http://www.w3.org/2000/svg">
<path d="M1.5 10.5333C1.5 7.54639 1.5 6.05291 2.0813 4.91205C2.59262 3.90852 3.40852 3.09262 4.41205 2.5813C5.55291 2 7.04639 2 10.0333 2H24.9667C27.9536 2 29.4471 2 30.5879 2.5813C31.5915 3.09262 32.4074 3.90852 32.9187 4.91205C33.5 6.05291 33.5 7.54639 33.5 10.5333V25.4667C33.5 28.4536 33.5 29.9471 32.9187 31.0879C32.4074 32.0915 31.5915 32.9074 30.5879 33.4187C29.4471 34 27.9536 34 24.9667 34H10.0333C7.04639 34 5.55291 34 4.41205 33.4187C3.40852 32.9074 2.59262 32.0915 2.0813 31.0879C1.5 29.9471 1.5 28.4536 1.5 25.4667V10.5333Z" fill="#1FA0BD"/>
<path d="M10.3889 23.3333V26.8889V23.3333Z" fill="#1FA0BD"/>
<path d="M17.5 16.2222V26.8889V16.2222Z" fill="#1FA0BD"/>
<path d="M24.6111 9.11111V26.8889V9.11111Z" fill="#1FA0BD"/>
<path d="M10.3889 23.3333V26.8889M17.5 16.2222V26.8889M24.6111 9.11111V26.8889M10.0333 34H24.9667C27.9536 34 29.4471 34 30.5879 33.4187C31.5915 32.9074 32.4074 32.0915 32.9187 31.0879C33.5 29.9471 33.5 28.4536 33.5 25.4667V10.5333C33.5 7.54639 33.5 6.05291 32.9187 4.91205C32.4074 3.90852 31.5915 3.09262 30.5879 2.5813C29.4471 2 27.9536 2 24.9667 2H10.0333C7.04639 2 5.55291 2 4.41205 2.5813C3.40852 3.09262 2.59262 3.90852 2.0813 4.91205C1.5 6.05291 1.5 7.54639 1.5 10.5333V25.4667C1.5 28.4536 1.5 29.9471 2.0813 31.0879C2.59262 32.0915 3.40852 32.9074 4.41205 33.4187C5.55291 34 7.04639 34 10.0333 34Z" stroke="#F6F5FA" stroke-width="2.5" stroke-linecap="round" stroke-linejoin="round"/>
</svg>
