<svg width="22" height="19" viewBox="0 0 22 19" fill="none" xmlns="http://www.w3.org/2000/svg">
<path d="M21.8602 9.13046C21.6636 8.89827 16.9808 3.44507 10.9999 3.44507C5.01902 3.44507 0.33593 8.89827 0.139606 9.13024C-0.0465352 9.35052 -0.0465352 9.64929 0.139606 9.86957C0.33593 10.1018 5.01902 15.555 10.9999 15.555C16.9808 15.555 21.6636 10.1017 21.8602 9.86975C22.0466 9.64951 22.0466 9.35052 21.8602 9.13046ZM10.9999 14.3022C6.59434 14.3022 2.77867 10.6828 1.64914 9.49959C2.7772 8.31531 6.58489 4.69781 10.9999 4.69781C15.4052 4.69781 19.2206 8.31657 20.3506 9.50044C19.2226 10.6847 15.4149 14.3022 10.9999 14.3022Z" fill="#8E8E8E"/>
<path d="M11.0001 5.7417C8.60064 5.7417 6.64844 7.42769 6.64844 9.49996C6.64844 11.5722 8.60064 13.2582 11.0001 13.2582C13.3996 13.2582 15.3518 11.5722 15.3518 9.49996C15.3518 7.42769 13.3996 5.7417 11.0001 5.7417ZM11.0001 12.0054C9.40038 12.0054 8.09902 10.8815 8.09902 9.49996C8.09902 8.11841 9.40042 6.99448 11.0001 6.99448C12.5998 6.99448 13.9012 8.11841 13.9012 9.49996C13.9012 10.8815 12.5998 12.0054 11.0001 12.0054Z" fill="#8E8E8E"/>
</svg>
