<svg width="14" height="12" viewBox="0 0 14 12" fill="none" xmlns="http://www.w3.org/2000/svg">
<path d="M0 4.02484C0 4.99379 0.14433 6.48447 1.4433 7.82609C2.59794 9.01863 6.42268 11.7019 6.56701 11.8509C6.71134 11.9255 6.85567 12 7 12C7.14433 12 7.28866 11.9255 7.43299 11.8509C7.57732 11.7019 11.4021 9.09317 12.5567 7.82609C13.8557 6.48447 14 4.99379 14 4.02484C14 1.78882 12.268 0 10.1031 0C8.94846 0 7.79382 0.670808 7.07217 1.71429C6.35052 0.670808 5.19588 0 3.89691 0C1.80412 0 0 1.78882 0 4.02484Z" fill="#F07575"/>
</svg>
