<svg width="7" height="12" viewBox="0 0 7 12" fill="none" xmlns="http://www.w3.org/2000/svg">
<path d="M1.79439 10.8564L5.89486 6.27415C5.9338 6.23063 5.96106 6.18712 5.97664 6.1436C5.99221 6.10009 6 6.05222 6 6C6 5.94778 5.99221 5.89991 5.97664 5.8564C5.96106 5.81288 5.9338 5.76936 5.89486 5.72585L1.79439 1.1436C1.70872 1.04787 1.59969 1 1.46729 1C1.33489 1 1.22586 1.04787 1.14019 1.1436C1.04673 1.24804 1 1.37206 1 1.51567C1 1.65927 1.04673 1.78329 1.14019 1.88773L4.82009 6L1.14019 10.1123C1.04673 10.2167 1.00195 10.3407 1.00584 10.4843C1.00974 10.6279 1.05452 10.7476 1.14019 10.8433C1.23365 10.9478 1.34463 11 1.47313 11C1.60164 11 1.70872 10.9521 1.79439 10.8564Z" fill="#1FA0BD" stroke="#1FA0BD" stroke-width="0.5"/>
</svg>
