<svg width="41" height="23" viewBox="0 0 41 23" fill="none" xmlns="http://www.w3.org/2000/svg">
<path d="M0.34 22V0.849999H4.21V9.67H15.04V0.849999H18.91V22H15.04V12.88H4.21V22H0.34ZM33.4124 22.3C31.2124 22.3 29.3224 21.86 27.7424 20.98C26.1824 20.08 24.9824 18.82 24.1424 17.2C23.3024 15.56 22.8824 13.63 22.8824 11.41C22.8824 9.19 23.3024 7.27 24.1424 5.65C24.9824 4.03 26.1824 2.78 27.7424 1.9C29.3224 0.999999 31.2124 0.549999 33.4124 0.549999C34.8924 0.549999 36.2224 0.759999 37.4024 1.18C38.6024 1.6 39.6324 2.22 40.4924 3.04L39.2324 6.1C38.2924 5.34 37.3824 4.8 36.5024 4.48C35.6424 4.14 34.6524 3.97 33.5324 3.97C31.3924 3.97 29.7524 4.62 28.6124 5.92C27.4924 7.2 26.9324 9.03 26.9324 11.41C26.9324 13.79 27.4924 15.63 28.6124 16.93C29.7524 18.23 31.3924 18.88 33.5324 18.88C34.6524 18.88 35.6424 18.72 36.5024 18.4C37.3824 18.06 38.2924 17.5 39.2324 16.72L40.4924 19.78C39.6324 20.58 38.6024 21.2 37.4024 21.64C36.2224 22.08 34.8924 22.3 33.4124 22.3Z" fill="#F6F5FA"/>
</svg>
