<svg width="36" height="36" viewBox="0 0 36 36" fill="none" xmlns="http://www.w3.org/2000/svg">
<g opacity="0.7">
<path d="M9.46875 22.8345L14.473 16.3524L20.1812 20.8215L25.0785 14.5227" stroke="#F6F5FA" stroke-width="3" stroke-linecap="round" stroke-linejoin="round"/>
<path d="M30.7868 8.40547C32.5616 8.40547 34.0004 6.97155 34.0004 5.20273C34.0004 3.43391 32.5616 2 30.7868 2C29.012 2 27.5732 3.43391 27.5732 5.20273C27.5732 6.97155 29.012 8.40547 30.7868 8.40547Z" stroke="#F6F5FA" stroke-width="3" stroke-linecap="round" stroke-linejoin="round"/>
<path d="M22.3088 3.40295H10.1572C5.12207 3.40295 2 6.95683 2 11.975V25.4431C2 30.4612 5.06085 33.9998 10.1572 33.9998H24.5432C29.5783 33.9998 32.7003 30.4612 32.7003 25.4431V13.7138" stroke="#F6F5FA" stroke-width="3" stroke-linecap="round" stroke-linejoin="round"/>
</g>
</svg>
