<svg width="20" height="20" viewBox="0 0 20 20" fill="none" xmlns="http://www.w3.org/2000/svg">
<path opacity="0.7" d="M13.6644 14.7006L13.6004 14.6366L13.5303 14.694C12.1109 15.8565 10.3001 16.5566 8.3283 16.5566C3.7938 16.5566 0.1 12.8628 0.1 8.3283C0.1 3.7938 3.7938 0.1 8.3283 0.1C12.8628 0.1 16.5566 3.7938 16.5566 8.3283C16.5566 10.3001 15.8565 12.1109 14.694 13.5303L14.6366 13.6004L14.7006 13.6644L19.6732 18.637L19.6732 18.637L19.6747 18.6384C19.745 18.7059 19.8012 18.7868 19.8398 18.8763C19.8785 18.9658 19.899 19.0621 19.9 19.1596C19.901 19.2571 19.8825 19.3538 19.8456 19.4441C19.8088 19.5344 19.7543 19.6164 19.6853 19.6853C19.6164 19.7543 19.5344 19.8088 19.4441 19.8456C19.3538 19.8825 19.2571 19.901 19.1596 19.9C19.0621 19.899 18.9658 19.8785 18.8763 19.8398C18.7868 19.8012 18.7059 19.745 18.6384 19.6747L18.6384 19.6747L18.637 19.6732L13.6644 14.7006ZM15.0909 8.3283C15.0909 4.58353 12.0731 1.56566 8.3283 1.56566C4.58353 1.56566 1.56566 4.58353 1.56566 8.3283C1.56566 12.0731 4.58353 15.0909 8.3283 15.0909C12.0731 15.0909 15.0909 12.0731 15.0909 8.3283Z" fill="#1FA0BD" stroke="#1FA0BD" stroke-width="0.2"/>
</svg>
