<svg width="24" height="24" viewBox="0 0 24 24" fill="none" xmlns="http://www.w3.org/2000/svg">
<path opacity="0.7" d="M19.6965 18.1104L16.4729 16.3001C16.3364 16.2183 16.1811 16.1746 16.023 16.1736C15.8648 16.1726 15.7095 16.2142 15.5731 16.2943L14.459 16.992C14.319 17.0772 14.1573 17.1191 13.9935 17.1124C13.8298 17.1057 13.6712 17.0508 13.5372 16.9545C11.1927 15.3086 9.50474 12.8686 8.7811 10.0793C8.73759 9.91911 8.74113 9.74986 8.79127 9.59232C8.84142 9.43478 8.936 9.29579 9.0634 9.1924L10.0567 8.32016C10.1807 8.2212 10.2761 8.09037 10.3331 7.94116C10.39 7.79196 10.4066 7.62979 10.3809 7.47139L9.80686 3.79216L9.66665 2.84917C9.64441 2.71363 9.59225 2.58471 9.51407 2.47205C9.38849 2.28908 9.20024 2.15974 8.98623 2.10939C8.39553 1.96418 7.78009 1.96353 7.19105 2.10749C6.60201 2.25146 6.05637 2.53587 5.59947 2.93712L5.37707 3.14122L5.26192 3.24763C5.20808 3.29452 5.15681 3.34435 5.10833 3.39688L4.96915 3.55802C3.13493 5.71749 3.95701 10.6902 6.98885 15.4419L7.89983 16.7587C11.2704 21.262 15.6113 23.7526 18.2662 22.7974L18.4639 22.7209C18.5291 22.6932 18.5927 22.662 18.6545 22.6274L18.7938 22.5559L19.0601 22.4152C19.5901 22.1199 20.042 21.7003 20.3783 21.1913C20.7145 20.6823 20.9254 20.0986 20.9934 19.4887C21.0202 19.2684 20.9647 19.0454 20.8378 18.8634C20.76 18.7505 20.658 18.6567 20.5397 18.589L19.6965 18.1104Z" stroke="#1FA0BD" stroke-width="1.5" stroke-miterlimit="10"/>
</svg>
