<svg width="24" height="24" viewBox="0 0 24 24" fill="none" xmlns="http://www.w3.org/2000/svg">
<circle cx="12" cy="12" r="11.5" fill="white" stroke="#1FA0BD"/>
<path d="M6.32086 19.5H15.7861C15.8712 19.5 15.9528 19.4671 16.013 19.4085C16.0731 19.3499 16.1069 19.2704 16.1069 19.1875V17.3438H17.6791C17.7642 17.3438 17.8458 17.3108 17.906 17.2522C17.9662 17.1936 18 17.1141 18 17.0312V7.00937C18.0002 6.96269 17.9896 6.91656 17.969 6.87438C17.9485 6.8322 17.9185 6.79504 17.8813 6.76562L15.0963 4.57812L15.0481 4.54375L15.0096 4.52187C14.9727 4.50834 14.9336 4.50094 14.8941 4.5H8.2139C8.12881 4.5 8.0472 4.53292 7.98702 4.59153C7.92685 4.65013 7.89305 4.72962 7.89305 4.8125V6.65625H6.32086C6.23576 6.65625 6.15415 6.68917 6.09398 6.74778C6.0338 6.80638 6 6.88587 6 6.96875V19.1875C6 19.2704 6.0338 19.3499 6.09398 19.4085C6.15415 19.4671 6.23576 19.5 6.32086 19.5ZM13.3219 7.625L15.0706 9.00313H13.3219V7.625ZM15.215 5.46875L16.8193 6.71875H15.215V5.46875ZM8.53476 5.125H14.5733V7.04375C14.5733 7.12663 14.6071 7.20612 14.6672 7.26472C14.7274 7.32333 14.809 7.35625 14.8941 7.35625H17.3583V16.7312H16.1069V9.16563C16.1071 9.11894 16.0965 9.07281 16.076 9.03063C16.0554 8.98845 16.0255 8.95129 15.9882 8.92188L13.2032 6.73438C13.189 6.72307 13.1726 6.71458 13.1551 6.70937L13.123 6.67813C13.0849 6.66458 13.0448 6.6572 13.0043 6.65625H8.53476V5.125ZM6.64171 7.28125H12.6802V9.31563C12.6802 9.39851 12.714 9.47799 12.7742 9.5366C12.8344 9.5952 12.916 9.62813 13.0011 9.62813H15.4652V18.875H6.64171V7.28125Z" fill="#1FA0BD" stroke="#1FA0BD" stroke-width="0.1"/>
<path d="M13.8928 10.6655H8.21368C8.12858 10.6655 8.04697 10.6985 7.9868 10.7571C7.92663 10.8157 7.89282 10.8951 7.89282 10.978C7.89282 11.0609 7.92663 11.1404 7.9868 11.199C8.04697 11.2576 8.12858 11.2905 8.21368 11.2905H13.8928C13.9779 11.2905 14.0595 11.2576 14.1197 11.199C14.1799 11.1404 14.2137 11.0609 14.2137 10.978C14.2137 10.8951 14.1799 10.8157 14.1197 10.7571C14.0595 10.6985 13.9779 10.6655 13.8928 10.6655ZM13.8928 12.178H8.21368C8.12858 12.178 8.04697 12.211 7.9868 12.2696C7.92663 12.3282 7.89282 12.4076 7.89282 12.4905C7.89282 12.5734 7.92663 12.6529 7.9868 12.7115C8.04697 12.7701 8.12858 12.803 8.21368 12.803H13.8928C13.9779 12.803 14.0595 12.7701 14.1197 12.7115C14.1799 12.6529 14.2137 12.5734 14.2137 12.4905C14.2137 12.4076 14.1799 12.3282 14.1197 12.2696C14.0595 12.211 13.9779 12.178 13.8928 12.178ZM13.8928 13.6905H8.21368C8.12858 13.6905 8.04697 13.7235 7.9868 13.7821C7.92663 13.8407 7.89282 13.9201 7.89282 14.003C7.89282 14.0859 7.92663 14.1654 7.9868 14.224C8.04697 14.2826 8.12858 14.3155 8.21368 14.3155H13.8928C13.9779 14.3155 14.0595 14.2826 14.1197 14.224C14.1799 14.1654 14.2137 14.0859 14.2137 14.003C14.2137 13.9201 14.1799 13.8407 14.1197 13.7821C14.0595 13.7235 13.9779 13.6905 13.8928 13.6905ZM13.8928 15.2062H8.21368C8.12858 15.2062 8.04697 15.2391 7.9868 15.2977C7.92663 15.3563 7.89282 15.4358 7.89282 15.5187C7.89282 15.6015 7.92663 15.681 7.9868 15.7396C8.04697 15.7982 8.12858 15.8312 8.21368 15.8312H13.8928C13.9779 15.8312 14.0595 15.7982 14.1197 15.7396C14.1799 15.681 14.2137 15.6015 14.2137 15.5187C14.2137 15.4358 14.1799 15.3563 14.1197 15.2977C14.0595 15.2391 13.9779 15.2062 13.8928 15.2062ZM13.8928 16.7187H8.21368C8.12858 16.7187 8.04697 16.7516 7.9868 16.8102C7.92663 16.8688 7.89282 16.9483 7.89282 17.0312C7.89282 17.114 7.92663 17.1935 7.9868 17.2521C8.04697 17.3107 8.12858 17.3437 8.21368 17.3437H13.8928C13.9779 17.3437 14.0595 17.3107 14.1197 17.2521C14.1799 17.1935 14.2137 17.114 14.2137 17.0312C14.2137 16.9483 14.1799 16.8688 14.1197 16.8102C14.0595 16.7516 13.9779 16.7187 13.8928 16.7187Z" fill="#1FA0BD" stroke="#1FA0BD" stroke-width="0.1"/>
</svg>
