<svg width="36" height="36" viewBox="0 0 36 36" fill="none" xmlns="http://www.w3.org/2000/svg">
<path opacity="0.7" d="M13.418 13.4181L6.68629 6.68633M6.68629 29.3137L13.4688 22.5313M22.5777 22.582L29.3094 29.3137M29.3094 6.68633L22.526 13.4698M34 18C34 26.8366 26.8366 34 18 34C9.16344 34 2 26.8366 2 18C2 9.16344 9.16344 2 18 2C26.8366 2 34 9.16344 34 18ZM24.4 18C24.4 21.5346 21.5346 24.4 18 24.4C14.4654 24.4 11.6 21.5346 11.6 18C11.6 14.4654 14.4654 11.6 18 11.6C21.5346 11.6 24.4 14.4654 24.4 18Z" stroke="#F6F5FA" stroke-width="3" stroke-linecap="round" stroke-linejoin="round"/>
</svg>
