<?xml version="1.0" encoding="utf-8"?>
<!-- Generator: Adobe Illustrator 27.0.1, SVG Export Plug-In . SVG Version: 6.00 Build 0)  -->
<svg version="1.1" id="Layer_1" xmlns="http://www.w3.org/2000/svg" xmlns:xlink="http://www.w3.org/1999/xlink" x="0px" y="0px"
	 viewBox="0 0 41 23" style="enable-background:new 0 0 41 23;" xml:space="preserve">
<style type="text/css">
	.st0{fill:#1FA0BD;}
</style>
<path class="st0" d="M0.3,22V0.8h3.9v8.8H15V0.8h3.9V22H15v-9.1H4.2V22H0.3z M33.4,22.3c-2.2,0-4.1-0.4-5.7-1.3
	c-1.6-0.9-2.8-2.2-3.6-3.8c-0.8-1.6-1.3-3.6-1.3-5.8s0.4-4.1,1.3-5.8s2-2.9,3.6-3.8c1.6-0.9,3.5-1.4,5.7-1.4c1.5,0,2.8,0.2,4,0.6
	c1.2,0.4,2.2,1,3.1,1.9l-1.3,3.1c-0.9-0.8-1.8-1.3-2.7-1.6c-0.9-0.3-1.8-0.5-3-0.5c-2.1,0-3.8,0.6-4.9,2c-1.1,1.3-1.7,3.1-1.7,5.5
	s0.6,4.2,1.7,5.5c1.1,1.3,2.8,1.9,4.9,1.9c1.1,0,2.1-0.2,3-0.5c0.9-0.3,1.8-0.9,2.7-1.7l1.3,3.1c-0.9,0.8-1.9,1.4-3.1,1.9
	C36.2,22.1,34.9,22.3,33.4,22.3z"/>
</svg>
